{"asset":{"version":"2.0","generator":"Blockbench 5.0.7 glTF exporter"},"scenes":[{"nodes":[23],"name":"blockbench_export"}],"scene":0,"nodes":[{"rotation":[0.05233595624294383,0,0,0.9986295347545738],"translation":[0,-0.14375000000000004,0.01874999999999999],"name":"mesh","mesh":0},{"rotation":[0.05233595624294383,0,0,0.9986295347545738],"translation":[0,-0.15625,-0.012500000000000011],"name":"mesh","mesh":1},{"translation":[0,-0.16250000000000003,0.012500000000000011],"name":"forearmL","children":[1]},{"translation":[0,-0.06874999999999998,0.25],"name":"armL","children":[0,2]},{"rotation":[-0.05233595624294383,0,0,0.9986295347545738],"translation":[0,-0.14375000000000004,-0.01874999999999999],"name":"mesh","mesh":2},{"rotation":[-0.05233595624294383,0,0,0.9986295347545738],"translation":[0,-0.15625,0.012500000000000011],"name":"mesh","mesh":3},{"translation":[0,-0.16250000000000003,-0.012500000000000011],"name":"forearmR","children":[5]},{"translation":[0,-0.06874999999999998,-0.25],"name":"armR","children":[4,6]},{"translation":[0,-0.11249999999999999,0],"name":"mesh","mesh":4},{"translation":[0,-0.41250000000000003,0],"name":"low body","children":[8]},{"translation":[0,-0.20625,0],"name":"mesh","mesh":5},{"translation":[0,-0.08124999999999999,0],"name":"mesh","mesh":6},{"translation":[0,-0.20625,0],"name":"mesh","mesh":7},{"translation":[0,-0.31875,0],"name":"mesh","mesh":8},{"translation":[0,-0.08750000000000002,0],"name":"chest","children":[10,11,12,13]},{"translation":[0,0.5875,0],"name":"torso","children":[3,7,9,14]},{"translation":[0,0.006249999999999978,0],"name":"mesh","mesh":9},{"translation":[0,0.006249999999999978,0],"name":"mesh","mesh":10},{"translation":[0,-0.006249999999999978,0],"name":"mesh","mesh":11},{"translation":[0,0.09375,0],"name":"mesh","mesh":12},{"rotation":[-0.25881904510252074,0,0,0.9659258262890683],"translation":[0,0.11875000000000002,0],"name":"thin antenna","children":[19]},{"rotation":[-0.21643961393810288,0,0,0.9762960071199334],"translation":[0,0.30625,0],"name":"antenna","children":[18,20]},{"translation":[0,0.625,0],"name":"head","children":[16,17,21]},{"name":"full robot","children":[15,22]}],"bufferViews":[{"buffer":0,"byteOffset":0,"byteLength":1056,"target":34962,"byteStride":12},{"buffer":0,"byteOffset":1056,"byteLength":1056,"target":34962,"byteStride":12},{"buffer":0,"byteOffset":2112,"byteLength":704,"target":34962,"byteStride":8},{"buffer":0,"byteOffset":2816,"byteLength":264,"target":34963},{"buffer":0,"byteOffset":3080,"byteLength":672,"target":34962,"byteStride":12},{"buffer":0,"byteOffset":3752,"byteLength":672,"target":34962,"byteStride":12},{"buffer":0,"byteOffset":4424,"byteLength":448,"target":34962,"byteStride":8},{"buffer":0,"byteOffset":4872,"byteLength":168,"target":34963},{"buffer":0,"byteOffset":5040,"byteLength":1056,"target":34962,"byteStride":12},{"buffer":0,"byteOffset":6096,"byteLength":1056,"target":34962,"byteStride":12},{"buffer":0,"byteOffset":7152,"byteLength":704,"target":34962,"byteStride":8},{"buffer":0,"byteOffset":7856,"byteLength":264,"target":34963},{"buffer":0,"byteOffset":8120,"byteLength":672,"target":34962,"byteStride":12},{"buffer":0,"byteOffset":8792,"byteLength":672,"target":34962,"byteStride":12},{"buffer":0,"byteOffset":9464,"byteLength":448,"target":34962,"byteStride":8},{"buffer":0,"byteOffset":9912,"byteLength":168,"target":34963},{"buffer":0,"byteOffset":10080,"byteLength":288,"target":34962,"byteStride":12},{"buffer":0,"byteOffset":10368,"byteLength":288,"target":34962,"byteStride":12},{"buffer":0,"byteOffset":10656,"byteLength":192,"target":34962,"byteStride":8},{"buffer":0,"byteOffset":10848,"byteLength":72,"target":34963},{"buffer":0,"byteOffset":10920,"byteLength":1728,"target":34962,"byteStride":12},{"buffer":0,"byteOffset":12648,"byteLength":1728,"target":34962,"byteStride":12},{"buffer":0,"byteOffset":14376,"byteLength":1152,"target":34962,"byteStride":8},{"buffer":0,"byteOffset":15528,"byteLength":432,"target":34963},{"buffer":0,"byteOffset":15960,"byteLength":2208,"target":34962,"byteStride":12},{"buffer":0,"byteOffset":18168,"byteLength":2208,"target":34962,"byteStride":12},{"buffer":0,"byteOffset":20376,"byteLength":1472,"target":34962,"byteStride":8},{"buffer":0,"byteOffset":21848,"byteLength":552,"target":34963},{"buffer":0,"byteOffset":22400,"byteLength":2208,"target":34962,"byteStride":12},{"buffer":0,"byteOffset":24608,"byteLength":2208,"target":34962,"byteStride":12},{"buffer":0,"byteOffset":26816,"byteLength":1472,"target":34962,"byteStride":8},{"buffer":0,"byteOffset":28288,"byteLength":552,"target":34963},{"buffer":0,"byteOffset":28840,"byteLength":2208,"target":34962,"byteStride":12},{"buffer":0,"byteOffset":31048,"byteLength":2208,"target":34962,"byteStride":12},{"buffer":0,"byteOffset":33256,"byteLength":1472,"target":34962,"byteStride":8},{"buffer":0,"byteOffset":34728,"byteLength":552,"target":34963},{"buffer":0,"byteOffset":35280,"byteLength":4320,"target":34962,"byteStride":12},{"buffer":0,"byteOffset":39600,"byteLength":4320,"target":34962,"byteStride":12},{"buffer":0,"byteOffset":43920,"byteLength":2880,"target":34962,"byteStride":8},{"buffer":0,"byteOffset":46800,"byteLength":1080,"target":34963},{"buffer":0,"byteOffset":47880,"byteLength":288,"target":34962,"byteStride":12},{"buffer":0,"byteOffset":48168,"byteLength":288,"target":34962,"byteStride":12},{"buffer":0,"byteOffset":48456,"byteLength":192,"target":34962,"byteStride":8},{"buffer":0,"byteOffset":48648,"byteLength":72,"target":34963},{"buffer":0,"byteOffset":48720,"byteLength":288,"target":34962,"byteStride":12},{"buffer":0,"byteOffset":49008,"byteLength":288,"target":34962,"byteStride":12},{"buffer":0,"byteOffset":49296,"byteLength":192,"target":34962,"byteStride":8},{"buffer":0,"byteOffset":49488,"byteLength":72,"target":34963},{"buffer":0,"byteOffset":49560,"byteLength":672,"target":34962,"byteStride":12},{"buffer":0,"byteOffset":50232,"byteLength":672,"target":34962,"byteStride":12},{"buffer":0,"byteOffset":50904,"byteLength":448,"target":34962,"byteStride":8},{"buffer":0,"byteOffset":51352,"byteLength":168,"target":34963},{"buffer":0,"byteOffset":51520,"byteLength":160},{"buffer":0,"byteOffset":51680,"byteLength":640},{"buffer":0,"byteOffset":52320,"byteLength":3776},{"buffer":0,"byteOffset":56096,"byteLength":11328},{"buffer":0,"byteOffset":67424,"byteLength":120},{"buffer":0,"byteOffset":67544,"byteLength":480},{"buffer":0,"byteOffset":68024,"byteLength":120},{"buffer":0,"byteOffset":68144,"byteLength":480},{"buffer":0,"byteOffset":68624,"byteLength":52},{"buffer":0,"byteOffset":68676,"byteLength":208},{"buffer":0,"byteOffset":68884,"byteLength":2504},{"buffer":0,"byteOffset":71388,"byteLength":10016},{"buffer":0,"byteOffset":81404,"byteLength":3356},{"buffer":0,"byteOffset":84760,"byteLength":13424},{"buffer":0,"byteOffset":98184,"byteLength":2140},{"buffer":0,"byteOffset":100324,"byteLength":8560}],"buffers":[{"byteLength":108884,"uri":"data:application/octet-stream;base64,"}],"accessors":[{"bufferView":0,"componentType":5126,"count":88,"max":[0.078125,0.140625,0.04374999925494194],"min":[-0.078125,-0.015625,-0.04374999925494194],"type":"VEC3"},{"bufferView":1,"componentType":5126,"count":88,"max":[1,1,1],"min":[-1,-1,-1],"type":"VEC3"},{"bufferView":2,"componentType":5126,"count":88,"max":[0.78125,0.011718738824129105],"min":[0.140625,0.004150392487645149],"type":"VEC2"},{"bufferView":3,"componentType":5123,"count":132,"max":[87],"min":[0],"type":"SCALAR"},{"bufferView":4,"componentType":5126,"count":56,"max":[0.04709687456488609,0.16249999403953552,0.04709687456488609],"min":[-0.04709687456488609,-0.05554249882698059,-0.04709687456488609],"type":"VEC3"},{"bufferView":5,"componentType":5126,"count":56,"max":[1,1,1],"min":[-1,-1,-1],"type":"VEC3"},{"bufferView":6,"componentType":5126,"count":56,"max":[0.734375,0.01220703125],"min":[0,0.00805663876235485],"type":"VEC2"},{"bufferView":7,"componentType":5123,"count":84,"max":[55],"min":[0],"type":"SCALAR"},{"bufferView":8,"componentType":5126,"count":88,"max":[0.078125,0.140625,0.04374999925494194],"min":[-0.078125,-0.015625,-0.04374999925494194],"type":"VEC3"},{"bufferView":9,"componentType":5126,"count":88,"max":[1,1,1],"min":[-1,-1,-1],"type":"VEC3"},{"bufferView":10,"componentType":5126,"count":88,"max":[0.78125,0.012451177462935448],"min":[0,0.002441415563225746],"type":"VEC2"},{"bufferView":11,"componentType":5123,"count":132,"max":[87],"min":[0],"type":"SCALAR"},{"bufferView":12,"componentType":5126,"count":56,"max":[0.04709687456488609,0.16249999403953552,0.04709687456488609],"min":[-0.04709687456488609,-0.05554249882698059,-0.04709687456488609],"type":"VEC3"},{"bufferView":13,"componentType":5126,"count":56,"max":[1,1,1],"min":[-1,-1,-1],"type":"VEC3"},{"bufferView":14,"componentType":5126,"count":56,"max":[0.765625,0.012451177462935448],"min":[0.125,0.0039062462747097015],"type":"VEC2"},{"bufferView":15,"componentType":5123,"count":84,"max":[55],"min":[0],"type":"SCALAR"},{"bufferView":16,"componentType":5126,"count":24,"max":[0.22499999403953552,0.1875,0.22499999403953552],"min":[-0.22499999403953552,0.0625,-0.22499999403953552],"type":"VEC3"},{"bufferView":17,"componentType":5126,"count":24,"max":[0.9578262567520142,1,0.9578262567520142],"min":[-0.9578262567520142,-1,-0.9578262567520142],"type":"VEC3"},{"bufferView":18,"componentType":5126,"count":24,"max":[0.7242187261581421,0.010498054325580597],"min":[0.0023437500931322575,0],"type":"VEC2"},{"bufferView":19,"componentType":5123,"count":36,"max":[23],"min":[0],"type":"SCALAR"},{"bufferView":20,"componentType":5126,"count":144,"max":[0.25,0.26249998807907104,0.25],"min":[-0.25,-0.012500000186264515,-0.25],"type":"VEC3"},{"bufferView":21,"componentType":5126,"count":144,"max":[0.9958934783935547,1,0.9958934783935547],"min":[-0.9958934783935547,-1,-0.9958934783935547],"type":"VEC3"},{"bufferView":22,"componentType":5126,"count":144,"max":[0.78125,0.009399419650435448],"min":[0,0.000019976869225502014],"type":"VEC2"},{"bufferView":23,"componentType":5123,"count":216,"max":[143],"min":[0],"type":"SCALAR"},{"bufferView":24,"componentType":5126,"count":184,"max":[0.20624999701976776,0.18125000596046448,0.20624999701976776],"min":[-0.20624999701976776,0.06875000149011612,-0.20624999701976776],"type":"VEC3"},{"bufferView":25,"componentType":5126,"count":184,"max":[0.998782217502594,1,0.998782217502594],"min":[-0.998782217502594,-1,-0.998782217502594],"type":"VEC3"},{"bufferView":26,"componentType":5126,"count":184,"max":[0.778124988079071,0.010986346751451492],"min":[0.0031250000465661287,0],"type":"VEC2"},{"bufferView":27,"componentType":5123,"count":276,"max":[183],"min":[0],"type":"SCALAR"},{"bufferView":28,"componentType":5126,"count":184,"max":[0.23125000298023224,0.24375000596046448,0.23125000298023224],"min":[-0.23125000298023224,0.0062500000931322575,-0.23125000298023224],"type":"VEC3"},{"bufferView":29,"componentType":5126,"count":184,"max":[0.9952932596206665,1,0.9952932596206665],"min":[-0.9952932596206665,-1,-0.9952932596206665],"type":"VEC3"},{"bufferView":30,"componentType":5126,"count":184,"max":[0.725781261920929,0.010009761899709702],"min":[0.1276562511920929,0],"type":"VEC2"},{"bufferView":31,"componentType":5123,"count":276,"max":[183],"min":[0],"type":"SCALAR"},{"bufferView":32,"componentType":5126,"count":184,"max":[0.20624999701976776,0.18125000596046448,0.20624999701976776],"min":[-0.20624999701976776,0.06875000149011612,-0.20624999701976776],"type":"VEC3"},{"bufferView":33,"componentType":5126,"count":184,"max":[0.998782217502594,1,0.998782217502594],"min":[-0.998782217502594,-1,-0.998782217502594],"type":"VEC3"},{"bufferView":34,"componentType":5126,"count":184,"max":[0.762499988079071,0.010742200538516045],"min":[0.0031250000465661287,0.005173124372959137],"type":"VEC2"},{"bufferView":35,"componentType":5123,"count":276,"max":[183],"min":[0],"type":"SCALAR"},{"bufferView":36,"componentType":5126,"count":360,"max":[0.25,0.30000001192092896,0.25],"min":[-0.25,-0.05000000074505806,-0.25],"type":"VEC3"},{"bufferView":37,"componentType":5126,"count":360,"max":[0.9974592328071594,1,0.9974592328071594],"min":[-0.9974592328071594,-1,-0.9974592328071594],"type":"VEC3"},{"bufferView":38,"componentType":5126,"count":360,"max":[0.40625,0.006741750985383987],"min":[0,0],"type":"VEC2"},{"bufferView":39,"componentType":5123,"count":540,"max":[359],"min":[0],"type":"SCALAR"},{"bufferView":40,"componentType":5126,"count":24,"max":[0.21875,0.26875001192092896,0.21875],"min":[-0.21875,-0.01875000074505806,-0.21875],"type":"VEC3"},{"bufferView":41,"componentType":5126,"count":24,"max":[0.9971178770065308,1,0.9971178770065308],"min":[-0.9971178770065308,-1,-0.9971178770065308],"type":"VEC3"},{"bufferView":42,"componentType":5126,"count":24,"max":[0.671875,0.010009761899709702],"min":[0,0.0014648307114839554],"type":"VEC2"},{"bufferView":43,"componentType":5123,"count":36,"max":[23],"min":[0],"type":"SCALAR"},{"bufferView":44,"componentType":5126,"count":24,"max":[0.01875000074505806,0.125,0.01875000074505806],"min":[-0.01875000074505806,0,-0.01875000074505806],"type":"VEC3"},{"bufferView":45,"componentType":5126,"count":24,"max":[1,1,1],"min":[-1,-1,-1],"type":"VEC3"},{"bufferView":46,"componentType":5126,"count":24,"max":[0.765625,0.011962885037064552],"min":[0.28125,0.006591808050870895],"type":"VEC2"},{"bufferView":47,"componentType":5123,"count":36,"max":[23],"min":[0],"type":"SCALAR"},{"bufferView":48,"componentType":5126,"count":56,"max":[0.010669374838471413,0.22235874831676483,0.010669374838471413],"min":[-0.010669374838471413,-0.09375,-0.010669374838471413],"type":"VEC3"},{"bufferView":49,"componentType":5126,"count":56,"max":[1,1,1],"min":[-1,-1,-1],"type":"VEC3"},{"bufferView":50,"componentType":5126,"count":56,"max":[0.7878234386444092,0.012329081073403358],"min":[0.2824890613555908,0.002441415563225746],"type":"VEC2"},{"bufferView":51,"componentType":5123,"count":84,"max":[55],"min":[0],"type":"SCALAR"},{"bufferView":52,"componentType":5126,"count":40,"max":[2.125],"min":[0],"type":"SCALAR"},{"bufferView":53,"componentType":5126,"count":40,"max":[0.0038016801699995995,0.1512192189693451,0.016561197116971016,1],"min":[-0.10759983211755753,-0.08707278966903687,-0.0434534028172493,0.9824870228767395],"type":"VEC4"},{"bufferView":54,"componentType":5126,"count":944,"max":[59.375],"min":[0],"type":"SCALAR"},{"bufferView":55,"componentType":5126,"count":944,"max":[0,0.1049649566411972,0],"min":[0,-1.8624999523162842,0],"type":"VEC3"},{"bufferView":56,"componentType":5126,"count":30,"max":[2],"min":[0],"type":"SCALAR"},{"bufferView":57,"componentType":5126,"count":30,"max":[-0.06534087657928467,0.00028970709536224604,0,0.9978589415550232],"min":[-0.15212339162826538,-0.002852844540029764,-0.04352599382400513,0.9883615374565125],"type":"VEC4"},{"bufferView":58,"componentType":5126,"count":30,"max":[2],"min":[0],"type":"SCALAR"},{"bufferView":59,"componentType":5126,"count":30,"max":[0.1736481785774231,0.009488373063504696,0,0.9961947202682495],"min":[0.0866377204656601,-0.0013742910232394934,-0.10845260322093964,0.9848077297210693],"type":"VEC4"},{"bufferView":60,"componentType":5126,"count":13,"max":[1.4166699647903442],"min":[0],"type":"SCALAR"},{"bufferView":61,"componentType":5126,"count":13,"max":[0,0,0,1],"min":[0,-0.9966566562652588,0,-1],"type":"VEC4"},{"bufferView":62,"componentType":5126,"count":626,"max":[56.04167175292969],"min":[0],"type":"SCALAR"},{"bufferView":63,"componentType":5126,"count":626,"max":[0,0.9972270131111145,0,1],"min":[0,-0.44936156272888184,0,-1],"type":"VEC4"},{"bufferView":64,"componentType":5126,"count":839,"max":[57],"min":[0],"type":"SCALAR"},{"bufferView":65,"componentType":5126,"count":839,"max":[-0.06565380841493607,0.9302966594696045,0.20624180138111115,0.9762960076332092],"min":[-0.2164396196603775,-0.43668827414512634,-0.0968114584684372,0.2961452007293701],"type":"VEC4"},{"bufferView":66,"componentType":5126,"count":535,"max":[56.16667175292969],"min":[0],"type":"SCALAR"},{"bufferView":67,"componentType":5126,"count":535,"max":[0.3826834261417389,0,0,0.9999995231628418],"min":[-0.258819043636322,0,0,0.9238795042037964],"type":"VEC4"}],"materials":[{"pbrMetallicRoughness":{"metallicFactor":0,"roughnessFactor":1,"baseColorTexture":{"index":0}},"alphaMode":"MASK","alphaCutoff":0.05,"doubleSided":true}],"textures":[{"sampler":0,"source":0,"name":"robot"}],"samplers":[{"magFilter":9728,"minFilter":9728,"wrapS":33071,"wrapT":33071}],"images":[{"mimeType":"image/png","uri":"data:image/png;base64,"}],"meshes":[{"primitives":[{"mode":4,"attributes":{"POSITION":0,"NORMAL":1,"TEXCOORD_0":2},"indices":3,"material":0}]},{"primitives":[{"mode":4,"attributes":{"POSITION":4,"NORMAL":5,"TEXCOORD_0":6},"indices":7,"material":0}]},{"primitives":[{"mode":4,"attributes":{"POSITION":8,"NORMAL":9,"TEXCOORD_0":10},"indices":11,"material":0}]},{"primitives":[{"mode":4,"attributes":{"POSITION":12,"NORMAL":13,"TEXCOORD_0":14},"indices":15,"material":0}]},{"primitives":[{"mode":4,"attributes":{"POSITION":16,"NORMAL":17,"TEXCOORD_0":18},"indices":19,"material":0}]},{"primitives":[{"mode":4,"attributes":{"POSITION":20,"NORMAL":21,"TEXCOORD_0":22},"indices":23,"material":0}]},{"primitives":[{"mode":4,"attributes":{"POSITION":24,"NORMAL":25,"TEXCOORD_0":26},"indices":27,"material":0}]},{"primitives":[{"mode":4,"attributes":{"POSITION":28,"NORMAL":29,"TEXCOORD_0":30},"indices":31,"material":0}]},{"primitives":[{"mode":4,"attributes":{"POSITION":32,"NORMAL":33,"TEXCOORD_0":34},"indices":35,"material":0}]},{"primitives":[{"mode":4,"attributes":{"POSITION":36,"NORMAL":37,"TEXCOORD_0":38},"indices":39,"material":0}]},{"primitives":[{"mode":4,"attributes":{"POSITION":40,"NORMAL":41,"TEXCOORD_0":42},"indices":43,"material":0}]},{"primitives":[{"mode":4,"attributes":{"POSITION":44,"NORMAL":45,"TEXCOORD_0":46},"indices":47,"material":0}]},{"primitives":[{"mode":4,"attributes":{"POSITION":48,"NORMAL":49,"TEXCOORD_0":50},"indices":51,"material":0}]}],"animations":[{"name":"hello_what_is_your_name","samplers":[{"input":52,"output":53,"interpolation":"LINEAR"},{"input":54,"output":55,"interpolation":"LINEAR"},{"input":56,"output":57,"interpolation":"LINEAR"},{"input":58,"output":59,"interpolation":"LINEAR"},{"input":60,"output":61,"interpolation":"LINEAR"},{"input":62,"output":63,"interpolation":"LINEAR"},{"input":64,"output":65,"interpolation":"LINEAR"},{"input":66,"output":67,"interpolation":"LINEAR"}],"channels":[{"sampler":0,"target":{"node":23,"path":"rotation"}},{"sampler":1,"target":{"node":23,"path":"translation"}},{"sampler":2,"target":{"node":3,"path":"rotation"}},{"sampler":3,"target":{"node":7,"path":"rotation"}},{"sampler":4,"target":{"node":9,"path":"rotation"}},{"sampler":5,"target":{"node":22,"path":"rotation"}},{"sampler":6,"target":{"node":21,"path":"rotation"}},{"sampler":7,"target":{"node":20,"path":"rotation"}}]}]}